<?xml version="1.0" encoding="UTF-8"?>
<svg width="24px" height="27px" viewBox="0 0 24 27" version="1.1" xmlns="http://www.w3.org/2000/svg" xmlns:xlink="http://www.w3.org/1999/xlink">
    <!-- Generator: Sketch 60.1 (88133) - https://sketch.com -->
    <title>baby</title>
    <desc>Created with Sketch.</desc>
    <g id="Page-1" stroke="none" stroke-width="1" fill="none" fill-rule="evenodd">
        <g id="Search-Ride-Copy-4" transform="translate(-26.000000, -262.000000)" fill="#000000" fill-rule="nonzero">
            <g id="Group-3" transform="translate(18.000000, 181.000000)">
                <g id="baby" transform="translate(8.000000, 81.000000)">
                    <path d="M22.3775639,12.8310022 L17.4806424,12.0232458 C16.6799903,11.8911819 15.8910084,12.3305733 15.5134925,13.1187408 L15,14.1908197 C16.0381837,13.9042487 17.0050489,13.7178284 17.861518,13.7178284 C19.8448767,13.7178284 21.178295,14.7454104 21.4806614,16.9217409 L21.8128519,16.9765514 C22.8533931,17.1481826 23.8227929,16.3591719 23.9786913,15.2144449 C24.1346488,14.0697178 23.4177515,13.0026335 22.3775639,12.8310022 Z" id="Path"></path>
                    <path d="M7.76270845,9.17781758 C7.47072653,9.34187771 7.21584255,9.5505332 7,9.79073174 C7.5791051,11.1210389 8.0592633,12.9040674 8.44579066,14.3187311 C8.60955891,14.9181699 9.00328864,15.4309561 9.5260323,15.7257205 C9.84425144,15.9051291 10.2029982,16 10.563517,16 C10.7910777,16 11.0163519,15.9628976 11.2331091,15.8896597 C12.2164616,15.5574908 13.157686,15.2371053 14.0530096,14.9724337 L12.3514204,11.5882628 L16.2550494,8.51946208 C17.0736049,7.8759717 17.2437181,6.65280217 16.634946,5.78748315 C16.0262884,4.92216412 14.8691071,4.74239289 14.0506088,5.38588327 L9.64321377,8.85072457 C9.02129457,8.74274097 8.36222027,8.84093535 7.76270845,9.17781758 Z" id="Path"></path>
                    <path d="M17.7318291,15.1885109 C16.1519164,15.1885109 13.91821,15.9247532 11.6460798,16.6565982 C11.2805825,16.7743138 10.9028861,16.8325477 10.5264274,16.8325477 C9.92744071,16.8325477 9.33151852,16.6851804 8.79287841,16.3954372 C7.91567293,15.9236836 7.26347051,15.1144113 6.98760898,14.1513541 C6.0728637,10.957881 5.11291744,7.61056351 3.41885304,8.03685908 C0.645504707,8.73477397 -0.715946484,12.8832229 0.377952616,17.3027563 C0.95531117,19.6353786 2.10130632,21.5769428 3.46258071,22.7881475 C3.60602163,22.9408628 3.76201511,23.0857344 3.92849852,23.2233564 C3.87545956,23.6123348 3.54467324,26.0380124 3.49110389,26.4305561 C3.45002816,26.7317083 3.68245667,27 3.98348224,27 L14.5402391,27 C14.8416772,27 15.0736343,26.7312924 15.0326175,26.4305561 C14.9921311,26.1338606 14.7079012,24.049564 14.6701846,23.7730127 C18.301998,22.1944593 20.548198,19.2357637 19.8839144,16.5517773 C19.637519,15.5559784 18.8477099,15.1885109 17.7318291,15.1885109 Z" id="Path"></path>
                    <path d="M5.36819788,7.94794633 C8.58654929,8.46305432 11.0817984,5.05575804 9.52392956,2.122591 C8.48836716,0.172601808 6.06926694,-0.567889346 4.1208542,0.468573386 C2.17244147,1.50503612 1.43254896,3.92609362 2.46823619,5.87608282 C3.06974995,7.00862075 4.15618229,7.75398438 5.36819788,7.94794633 Z" id="Path"></path>
                </g>
            </g>
        </g>
    </g>
</svg>