<?xml version="1.0" encoding="UTF-8"?>
<svg width="24px" height="27px" viewBox="0 0 24 27" version="1.1" xmlns="http://www.w3.org/2000/svg" xmlns:xlink="http://www.w3.org/1999/xlink">
    <!-- Generator: Sketch 60.1 (88133) - https://sketch.com -->
    <title>handicap</title>
    <desc>Created with Sketch.</desc>
    <g id="Page-1" stroke="none" stroke-width="1" fill="none" fill-rule="evenodd">
        <g id="Search-Ride-Copy-4" transform="translate(-140.000000, -264.000000)" fill="#000000" fill-rule="nonzero">
            <g id="Group-3" transform="translate(18.000000, 181.000000)">
                <g id="handicap" transform="translate(122.000000, 83.000000)">
                    <path d="M14.7568777,22.3604434 C13.4508665,23.9349458 11.4516378,24.94064 9.19627706,24.94064 C5.26076001,24.94064 2.11112254,21.7882086 2.11112254,17.953036 C2.11112254,15.6820862 3.36730601,13.6655581 5.0483365,12.3908793 L5.0483365,10 C2.20378465,11.5128244 0,14.4776518 0,17.9204837 C0,22.8907029 4.1225896,27 9.22337636,27 C12.5163778,27 15.3731681,25.2293273 17,22.7776266 C16.8802386,22.5103553 16.7456163,22.2516503 16.6144907,21.9903754 C15.9973261,22.1308642 15.3792873,22.2533636 14.7568777,22.3604434 Z" id="Path"></path>
                    <circle id="Oval" cx="10" cy="3" r="3"></circle>
                    <path d="M23.8288775,24.2190887 L20.4229198,16.6949993 C20.0236962,15.8143361 19.0208742,15.3314184 18.0397021,15.5439352 L11.180157,17.0522261 L11.1723631,10.0094007 C11.1706311,8.90960526 10.2370887,8 9.08618154,8 C9.08618154,8 9.08444955,8 9.08358356,8 C7.93181043,8 7,8.91373983 7,10.0127084 L7.01039194,19.5461984 C7.01039194,20.1514993 7.3013662,20.7311659 7.79844723,21.1082387 C8.29552826,21.4861383 8.94675637,21.6308482 9.56334469,21.4935805 L17.2845546,19.7967533 L19.9994484,25.7976672 C20.3415163,26.5501589 21.1087877,27 21.9158949,27 C22.1912813,27 22.4735956,26.9487313 22.74292,26.8362711 C23.7994337,26.4004874 24.2843908,25.2279236 23.8288775,24.2190887 Z" id="Path"></path>
                </g>
            </g>
        </g>
    </g>
</svg>