<?xml version="1.0" encoding="UTF-8"?>
<svg width="59px" height="26px" viewBox="0 0 59 26" version="1.1" xmlns="http://www.w3.org/2000/svg" xmlns:xlink="http://www.w3.org/1999/xlink">
    <!-- Generator: Sketch 60.1 (88133) - https://sketch.com -->
    <title>car</title>
    <desc>Created with Sketch.</desc>
    <g id="Page-1" stroke="none" stroke-width="1" fill="none" fill-rule="evenodd">
        <g id="Search-Ride-Copy-4" transform="translate(-39.000000, -204.000000)" fill="#000000" fill-rule="nonzero">
            <g id="Group-3" transform="translate(18.000000, 181.000000)">
                <g id="car" transform="translate(21.000000, 23.000000)">
                    <g id="Group">
                        <path d="M12.4526875,18.0763839 C11.5695313,18.0763839 10.854041,18.7982321 10.854041,19.6879196 C10.854041,20.5774911 11.5695313,21.2994554 12.4526875,21.2994554 C13.3371113,21.2994554 14.0526016,20.5776071 14.0526016,19.6879196 C14.0526016,18.7982321 13.3371113,18.0763839 12.4526875,18.0763839 Z" id="Path"></path>
                        <path d="M54.9990625,5.72510714 L43.7577187,1.18717857 C41.8863125,0.431205357 39.9148828,0.0484017857 37.8975898,0.0484017857 L31.0070352,0.0484017857 C28.5384844,0.0484017857 26.0698184,0.643848214 23.8690723,1.77171429 L13.6833906,6.98900893 L6.37660937,8.06208929 C4.60545703,8.32220536 2.98618359,9.21665179 1.81471094,10.5814196 C0.644275391,11.9451429 0,13.6891161 0,15.4913571 L0,19.8348661 C0,20.5057589 0.540564453,21.0501339 1.20650391,21.0501339 L6.38260156,21.0501339 C6.64199414,22.2326696 7.23683398,23.3142232 8.11515039,24.1770982 C9.28305078,25.32075 10.8238496,25.9514821 12.4538398,25.9514821 C14.0826777,25.9514821 15.6234766,25.32075 16.791377,24.1770982 C17.6709609,23.3130625 18.2669531,22.2289554 18.5251934,21.0501339 L40.1500762,21.0501339 C40.4094687,22.2326696 41.0043086,23.3142232 41.8838926,24.1759375 C43.0506406,25.32075 44.5913242,25.9514821 46.2201621,25.9514821 C47.8501523,25.9514821 49.3909512,25.32075 50.5576992,24.1770982 C51.4372832,23.3142232 52.032123,22.2325536 52.2915156,21.0501339 L57.7933809,21.0501339 C58.4594355,21.0501339 58.9998848,20.5056429 58.9998848,19.8348661 L58.9998848,11.6825893 C58.9998848,9.04533036 57.429125,6.7071875 54.9990625,5.72510714 Z M42.860043,3.44279464 L51.5375371,6.94652679 L44.9895742,6.94652679 L42.1071016,3.16573214 C42.3593496,3.2508125 42.6103301,3.34320536 42.860043,3.44279464 Z M32.138752,2.47905357 L37.8975898,2.47905357 C38.1172266,2.47905357 38.3355957,2.48392857 38.5526973,2.49483929 L41.9466953,6.94652679 L32.138752,6.94652679 L32.138752,2.47905357 Z M24.9621855,3.93865179 C26.4450215,3.17908036 28.0702871,2.70516071 29.7256289,2.54347321 L29.7256289,6.94652679 L19.089957,6.94652679 L24.9621855,3.93865179 Z M6.5382832,10.5000536 C6.04242969,12.1905179 4.56201367,13.4592946 2.76908203,13.6318929 C3.39757031,12.0435714 4.80561914,10.8221518 6.5382832,10.5000536 Z M12.4526875,23.5209464 C10.3509277,23.5209464 8.64730273,21.8049464 8.64730273,19.6879196 C8.64730273,17.5708929 10.3509277,15.8548929 12.4526875,15.8548929 C14.5544473,15.8548929 16.2580723,17.5708929 16.2580723,19.6879196 C16.2581875,21.8049464 14.5545625,23.5209464 12.4526875,23.5209464 Z M46.2215449,23.5209464 C44.1197852,23.5209464 42.4148926,21.8049464 42.4148926,19.6879196 C42.4148926,17.5708929 44.1197852,15.8548929 46.2215449,15.8548929 C48.3233047,15.8548929 50.0269297,17.5708929 50.0269297,19.6879196 C50.0269297,21.8049464 48.3233047,23.5209464 46.2215449,23.5209464 Z M56.586877,18.6195982 L52.3470586,18.6195982 C51.8415254,15.6737054 49.2885078,13.424125 46.2202773,13.424125 C43.1531992,13.424125 40.6001816,15.6737054 40.0946484,18.6195982 L18.5807363,18.6195982 C18.0752031,15.6737054 15.520918,13.424125 12.4539551,13.424125 C9.38572461,13.424125 6.83270703,15.6737054 6.32717383,18.6195982 L2.41312305,18.6195982 L2.41312305,16.0820446 C5.83132031,16.0504732 8.65214258,13.4594107 9.07320898,10.122125 L14.146748,9.37717857 L44.3948496,9.37717857 C44.3948496,9.37717857 44.3948496,9.37717857 44.396002,9.37717857 C44.396002,9.37717857 44.396002,9.37717857 44.3971543,9.37717857 L52.032123,9.37717857 L52.032123,10.9594643 C52.032123,13.1835089 53.828627,14.9930625 56.0354805,14.9930625 L56.586877,14.9930625 L56.586877,18.6195982 Z M56.586877,12.5625268 L56.0354805,12.5625268 C55.1594687,12.5625268 54.4452461,11.8431161 54.4452461,10.9595804 L54.4452461,9.37729464 L55.8605547,9.37729464 C56.3226445,10.036 56.586877,10.8331786 56.586877,11.6827054 L56.586877,12.5625268 L56.586877,12.5625268 Z" id="Shape"></path>
                        <path d="M46.2215449,18.0763839 C45.3371211,18.0763839 44.6216309,18.7982321 44.6216309,19.6879196 C44.6216309,20.5774911 45.3371211,21.2994554 46.2215449,21.2994554 C47.1047012,21.2994554 47.8201914,20.5776071 47.8201914,19.6879196 C47.8201914,18.7982321 47.1047012,18.0763839 46.2215449,18.0763839 Z" id="Path"></path>
                    </g>
                    <g id="SVGCleanerId_0" transform="translate(11.000000, 18.000000)">
                        <path d="M1.50685714,0.0760344828 C0.685714286,0.0760344828 0.0204642857,0.71937931 0.0204642857,1.51231034 C0.0204642857,2.30513793 0.685714286,2.94858621 1.50685714,2.94858621 C2.32917857,2.94858621 2.99442857,2.30524138 2.99442857,1.51231034 C2.99442857,0.71937931 2.32917857,0.0760344828 1.50685714,0.0760344828 Z" id="Path"></path>
                    </g>
                    <g id="SVGCleanerId_1" transform="translate(45.000000, 18.000000)">
                        <path d="M1.51167857,0.0760344828 C0.689357143,0.0760344828 0.0241071429,0.71937931 0.0241071429,1.51231034 C0.0241071429,2.30513793 0.689357143,2.94858621 1.51167857,2.94858621 C2.33282143,2.94858621 2.99807143,2.30524138 2.99807143,1.51231034 C2.99807143,0.71937931 2.33282143,0.0760344828 1.51167857,0.0760344828 Z" id="Path"></path>
                    </g>
                    <path d="M12.4994056,18 C11.671074,18 11,18.6718885 11,19.5 C11,20.3280035 11.671074,21 12.4994056,21 C13.328926,21 14,20.3281115 14,19.5 C14,18.6718885 13.328926,18 12.4994056,18 Z" id="Path"></path>
                    <path d="M46.5005944,18 C45.671074,18 45,18.6718885 45,19.5 C45,20.3280035 45.671074,21 46.5005944,21 C47.328926,21 48,20.3281115 48,19.5 C48,18.6718885 47.328926,18 46.5005944,18 Z" id="Path"></path>
                </g>
            </g>
        </g>
    </g>
</svg>