<?xml version="1.0" encoding="UTF-8"?>
<svg width="22px" height="27px" viewBox="0 0 22 27" version="1.1" xmlns="http://www.w3.org/2000/svg" xmlns:xlink="http://www.w3.org/1999/xlink">
    <!-- Generator: Sketch 60.1 (88133) - https://sketch.com -->
    <title>car-seat</title>
    <desc>Created with Sketch.</desc>
    <g id="Page-1" stroke="none" stroke-width="1" fill="none" fill-rule="evenodd">
        <g id="Search-Ride-Copy-4" transform="translate(-255.000000, -403.000000)" fill="#000000" fill-rule="nonzero">
            <g id="Group-3-Copy" transform="translate(18.000000, 320.000000)">
                <g id="car-seat" transform="translate(248.000000, 96.500000) scale(-1, 1) translate(-248.000000, -96.500000) translate(237.000000, 83.000000)">
                    <path d="M21.416065,0.684342415 C20.9996591,0.243099465 20.4254667,0 19.7990958,0 L18.0776556,0 C16.8089986,0 15.5982042,1.00499095 15.3789175,2.24038129 L15.2703542,2.85133307 C15.1612224,3.4661061 15.3080956,4.04839844 15.6840318,4.49099007 C16.0599681,4.9335817 16.6146076,5.17724312 17.2459805,5.17724312 L19.4696542,5.17724312 C19.7781788,5.17724312 20.0765861,5.11632776 20.353849,5.00820863 L20.1175105,7.00436656 C19.8900389,6.90984661 19.6402863,6.85949591 19.3778016,6.85949591 L16.840715,6.85949591 C15.7538307,6.85949591 14.6862718,7.71467105 14.4607328,8.76574188 L12.2176199,19.2210419 L1.63422428,18.4691531 C1.06230553,18.4286927 0.584853983,18.6203176 0.288834023,18.9965992 C0.0115710883,19.3490541 -0.0694819958,19.8218786 0.0604530325,20.3280829 L1.29091388,25.1179179 C1.55749099,26.1556143 2.65551587,27 3.73842146,27 L12.610949,27 L12.7463407,27 L17.2626913,27 C18.3600341,27 19.3471083,26.1221221 19.4628335,25.0431786 L21.1989382,8.86116095 C21.2088283,8.76866402 21.2099651,8.67751577 21.2067821,8.58726663 L21.8009819,3.56928008 C21.884877,3.3531542 21.9381924,3.12342914 21.9549032,2.88516245 L21.9942361,2.32658439 C22.0378888,1.70888921 21.832471,1.12569775 21.416065,0.684342415 Z" id="Path"></path>
                </g>
            </g>
        </g>
    </g>
</svg>